# xmcd CD database file
#
# Track frame offsets:
#	150
#	19555
#	49315
#	65602
#
# Disc length: 1094 seconds
#
# Revision: 0
# Processed by: cddbd v1.5.1PL0 Copyright (c) Steve Scherf et al.
# Submitted via: CDex 1.51
#
DISCID=2f044404
DTITLE=爆風スランプ - ダンスにGO-ON!
DYEAR=1991
DGENRE=J-POP
TTITLE0=東京ラテン系セニョリータ(Latin Mega Mix)
TTITLE1=Ah! Yeah! BUDOKAN 1991
TTITLE2=THE SENTAKU AGAIN
TTITLE3=1800(HOUSE MIX)
EXTD=YEAR: 1991
EXTT0=
EXTT1=
EXTT2=
EXTT3=
PLAYORDER=
